<?xml version="1.0" standalone="no"?>
<!DOCTYPE svg PUBLIC "-//W3C//DTD SVG 20010904//EN"
 "http://www.w3.org/TR/2001/REC-SVG-20010904/DTD/svg10.dtd">
<svg version="1.0" xmlns="http://www.w3.org/2000/svg"
 width="260.000000pt" height="260.000000pt" viewBox="0 0 260.000000 260.000000"
 preserveAspectRatio="xMidYMid meet">
<metadata>
Created by potrace 1.11, written by Peter Selinger 2001-2013
</metadata>
<g transform="translate(0.000000,260.000000) scale(0.100000,-0.100000)"
fill="#000000" stroke="none">
<path d="M2220 2275 c-59 -72 -63 -75 -84 -62 -32 21 -127 55 -177 63 -221 35
-416 -21 -549 -156 -102 -104 -148 -223 -148 -383 0 -206 90 -375 249 -466 47
-27 49 -29 28 -36 -52 -15 -130 -59 -164 -91 -46 -43 -63 -86 -59 -146 14
-182 186 -246 509 -188 148 27 233 23 310 -14 61 -31 88 -75 87 -143 -1 -116
-136 -200 -333 -208 -142 -6 -276 33 -433 127 -24 14 -40 19 -43 12 -2 -6 -32
-53 -68 -104 -35 -52 -62 -97 -59 -101 17 -29 186 -103 319 -141 93 -26 331
-34 425 -13 191 41 328 125 401 244 61 100 65 263 10 375 -79 161 -263 232
-525 203 -37 -4 -89 -12 -115 -18 -25 -6 -90 -12 -143 -12 -81 -1 -100 2 -117
17 -44 40 -15 83 72 109 54 17 86 22 197 32 90 9 127 14 185 27 206 46 372
226 401 437 20 137 -7 296 -65 391 -11 19 -21 38 -21 41 0 4 34 32 75 63 l76
57 -83 79 c-46 44 -86 80 -89 80 -4 0 -34 -34 -69 -75z m-260 -230 c52 -27
108 -89 138 -151 24 -53 27 -70 26 -159 0 -116 -22 -186 -78 -251 -54 -63
-116 -89 -211 -89 -131 0 -206 49 -268 175 -30 60 -32 72 -32 165 0 87 3 107
26 155 38 80 112 152 172 167 91 22 169 18 227 -12z"/>
<path d="M480 2279 c-160 -22 -290 -109 -342 -228 -26 -60 -34 -173 -18 -242
14 -60 59 -136 111 -188 50 -50 110 -88 233 -148 161 -78 170 -83 219 -119 64
-47 100 -111 99 -179 -1 -101 -50 -162 -150 -185 -105 -24 -207 0 -356 85 -44
25 -82 43 -84 40 -11 -11 -91 -238 -87 -245 8 -13 156 -72 216 -86 208 -49
416 -29 554 51 85 50 163 158 179 250 20 108 -1 239 -51 318 -64 102 -145 155
-434 285 -117 52 -179 126 -179 214 0 62 30 104 94 134 113 52 257 27 398 -70
l37 -25 36 113 c19 63 35 118 35 124 0 13 -144 65 -241 86 -87 20 -191 25
-269 15z"/>
</g>
</svg>
