<svg xmlns="http://www.w3.org/2000/svg" viewBox="-3177.116 1449.659 31 32"><defs><style>.a{fill:#fff;stroke:#000;stroke-width:2px;}.b{stroke:none;}.c{fill:none;}</style></defs><g transform="translate(-2487 -1995)"><g class="a" transform="translate(-690.116 3444.659)"><ellipse class="b" cx="15.5" cy="16" rx="15.5" ry="16"/><ellipse class="c" cx="15.5" cy="16" rx="14.5" ry="15"/></g><path d="M3.861,21.271l-.623-7.212L3.083,10.22H7.545l-.156,3.839-.623,7.212Zm1.453,6.641a2.44,2.44,0,0,1-1.868-.778,2.9,2.9,0,0,1,0-3.839,2.44,2.44,0,0,1,1.868-.778,2.44,2.44,0,0,1,1.868.778,2.9,2.9,0,0,1,0,3.839A2.44,2.44,0,0,1,5.314,27.912Z" transform="translate(-679.836 3441.659)"/></g></svg>