<svg id="Layer_1" data-name="Layer 1" xmlns="http://www.w3.org/2000/svg" viewBox="0 0 573.33 98.31"><defs><style>.cls-1{fill:#231f20;}</style></defs><title>SethsBlog_Logotype_v01_180413</title><path class="cls-1" d="M43.15,21.44V23.9L29.22,25.26V21.71c0-5.46-2.59-8.33-7.37-8.33s-7.38,2.87-7.38,8.33v1.23c0,5.6,2.46,10.38,12.16,18.57C39.87,52.71,44.79,60.63,44.79,72.1v4.78c0,13.65-8.06,21.43-22.4,21.43S0,90.53,0,76.88V70.46l13.93-1.37v6.83q0,9,8.19,9t8.19-9V72.78c0-6-2.86-10.79-12.56-19C4.51,42.6,0,34.68,0,23.49v-2C0,7.78,7.78,0,21.58,0S43.15,7.78,43.15,21.44Z"/><path class="cls-1" d="M66,14.75v27H87.16V55.17H66v28.4H92.21V97H51.52V1.37H92.21V14.75Z"/><path class="cls-1" d="M129,15V97H114.51V15H99.08V1.37h45.34V15Z"/><path class="cls-1" d="M183.24,97V55.3H166V97H151.56V1.37H166V41.65h17.21V1.37h14.47V97Z"/><path class="cls-1" d="M214,32h-7.51l4.91-15.29h-4.91V1.37h15.29V15.29Z"/><path class="cls-1" d="M270.41,21.44V23.9l-13.93,1.36V21.71c0-5.46-2.59-8.33-7.37-8.33s-7.38,2.87-7.38,8.33v1.23c0,5.6,2.46,10.38,12.16,18.57,13.24,11.2,18.16,19.12,18.16,30.59v4.78c0,13.65-8.06,21.43-22.4,21.43s-22.39-7.78-22.39-21.43V70.46l13.93-1.37v6.83q0,9,8.19,9t8.19-9V72.78c0-6-2.86-10.79-12.56-19-13.24-11.2-17.75-19.12-17.75-30.31v-2C227.26,7.78,235,0,248.84,0S270.41,7.78,270.41,21.44Z"/><path class="cls-1" d="M331.57,1.37c15,0,23.07,8.46,23.07,24.16v1.78c0,10.65-3.14,16.93-10.78,19.53v.27c9,2.73,12.83,9.83,12.83,22.39v3.28c0,15.7-8.46,24.17-24,24.17h-21.3V1.37Zm-5.74,39.46h4.51c7,0,9.83-3.55,9.83-11.61V26.08c0-7.78-2.87-11.33-9.15-11.33h-5.19Zm0,42.74h6.28c7,0,10.11-3.69,10.11-11.75V66.5c0-8.47-3.14-12.29-10.79-12.29h-5.6Z"/><path class="cls-1" d="M402.94,83.29V97H364.29V1.37h14.48V83.29Z"/><path class="cls-1" d="M454.15,24.17v50c0,15-8.88,24.16-23.35,24.16s-23.35-9.14-23.35-24.16v-50c0-15,8.87-24.17,23.35-24.17S454.15,9.15,454.15,24.17Zm-32.23.14V74c0,7.1,3.14,10.92,8.88,10.92s8.87-3.82,8.87-10.92V24.31c0-7.11-3.14-10.93-8.87-10.93S421.92,17.2,421.92,24.31Z"/><path class="cls-1" d="M506,22.94v6.55l-13.93.69V24.44c0-7.64-2.87-11.06-8.47-11.06s-8.46,3.42-8.46,9.7V75.24c0,6.28,2.73,9.69,8.33,9.69s8.33-3.41,8.33-11.06V57.49h-8.2V44.11H506V75.37c0,14.48-8.33,22.94-22.8,22.94S460.7,89.85,460.7,75.37V22.94C460.7,8.47,468.9,0,483.24,0S506,8.47,506,22.94Z"/></svg>