<svg xmlns="http://www.w3.org/2000/svg" viewBox="-1364 1344 12.579 12.579">
  <g id="socialshare_link" transform="translate(-2181.17 755.881)">
    <path id="socialshare_link-2" data-name="socialshare_link" d="M11.646,0H.928A.917.917,0,0,0,0,.907V11.672a.917.917,0,0,0,.928.907H11.646a.917.917,0,0,0,.933-.907V.907A.917.917,0,0,0,11.646,0ZM7.18,8.622c-.587.587-1.169,1.174-1.756,1.751a2.437,2.437,0,0,1-1.274.676,2.2,2.2,0,0,1-1.5-.22A2.159,2.159,0,0,1,1.541,9.355a2.327,2.327,0,0,1,.22-1.572,2.458,2.458,0,0,1,.472-.645l1.9-1.9a2.474,2.474,0,0,1,1.389-.692,2.217,2.217,0,0,1,1.6.356,1.9,1.9,0,0,1,.314.262.61.61,0,1,1-.86.865,1.048,1.048,0,0,0-.466-.257,1.153,1.153,0,0,0-.812.1,1.2,1.2,0,0,0-.335.252c-.388.383-.77.77-1.153,1.158l-.734.739a1.263,1.263,0,0,0-.362.708,1,1,0,0,0,.833,1.148,1.132,1.132,0,0,0,.729-.142,1.651,1.651,0,0,0,.335-.262L5.66,8.433h0a1.389,1.389,0,0,0,.624.257,2.191,2.191,0,0,0,.556.042.791.791,0,0,0,.346-.094Zm3.533-3.627a2.967,2.967,0,0,1-.43.524L8.533,7.254a2.83,2.83,0,0,1-.587.472,2.4,2.4,0,0,1-.975.33,2.186,2.186,0,0,1-1.515-.372,1.5,1.5,0,0,1-.351-.3.577.577,0,0,1-.1-.566.613.613,0,0,1,1-.225,1,1,0,0,0,.524.278,1.164,1.164,0,0,0,.692-.094,1.373,1.373,0,0,0,.393-.278L9.272,4.816c.1-.1.2-.194.294-.3a1.216,1.216,0,0,0,.283-.6,1,1,0,0,0-.666-1.137,1.048,1.048,0,0,0-.708,0,1.336,1.336,0,0,0-.482.309L6.945,4.135h0a1.19,1.19,0,0,0-.493-.22,2.1,2.1,0,0,0-.624-.079.954.954,0,0,0-.341.063H5.43c.577-.577,1.153-1.158,1.735-1.735a2.474,2.474,0,0,1,1.274-.676,2.238,2.238,0,0,1,1.85.44,2.144,2.144,0,0,1,.765,1.258,2.353,2.353,0,0,1-.341,1.808Z" transform="translate(817.17 588.119)"/>
  </g>
</svg>
