<svg xmlns="http://www.w3.org/2000/svg" viewBox="-1215 1632 12.579 12.579">
  <g id="socialshare_twitter" transform="translate(-1980.723 1043.881)">
    <path id="socialshare_twitter-2" data-name="socialshare_twitter" d="M11.646,0H.928A.917.917,0,0,0,0,.907V11.672a.917.917,0,0,0,.928.907H11.646a.917.917,0,0,0,.933-.907V.907A.917.917,0,0,0,11.646,0ZM10.561,4.114v.278a6.221,6.221,0,0,1-6.289,6.263A6.289,6.289,0,0,1,.891,9.665a4.418,4.418,0,0,0,3.3-.912,2.207,2.207,0,0,1-2.1-1.53,2.1,2.1,0,0,0,.991-.037A2.2,2.2,0,0,1,1.336,5.026V5a2.191,2.191,0,0,0,1,.273,2.2,2.2,0,0,1-.681-2.94,6.242,6.242,0,0,0,4.539,2.3A2.28,2.28,0,0,1,6.132,4.1,2.207,2.207,0,0,1,8.339,1.9a2.18,2.18,0,0,1,1.62.718,4.549,4.549,0,0,0,1.4-.524,2.238,2.238,0,0,1-.98,1.216,4.471,4.471,0,0,0,1.263-.351h0a4.476,4.476,0,0,1-1.08,1.153Z" transform="translate(765.723 588.119)"/>
  </g>
</svg>
