<svg xmlns="http://www.w3.org/2000/svg" viewBox="-1416 1523 12.579 12.579">
  <g id="socialshare_facebook" transform="translate(-2156 934.881)">
    <path id="socialshare_facebook-2" data-name="socialshare_facebook" d="M11.887,0H.692A.692.692,0,0,0,0,.692v11.2a.692.692,0,0,0,.692.692H6.719V7.71H5.079v-1.9h1.64v-1.4A2.288,2.288,0,0,1,9.162,1.9a12.316,12.316,0,0,1,1.462.079V3.669H9.617c-.786,0-.938.377-.938.928V5.807h1.876l-.241,1.9H8.679v4.869h3.2a.692.692,0,0,0,.7-.692V.692A.692.692,0,0,0,11.887,0" transform="translate(740 588.119)"/>
  </g>
</svg>
