<svg xmlns="http://www.w3.org/2000/svg" viewBox="-1152 1421 12.579 12.579">
  <g id="socialshare_linkedin" transform="translate(-1943.447 832.881)">
    <path id="socialshare_linkedin-2" data-name="socialshare_linkedin" d="M10.718,10.718H8.852V7.8c0-.7,0-1.572-.97-1.572s-1.116.755-1.116,1.536v2.972H4.9V4.717H6.688v.818h.026a1.965,1.965,0,0,1,1.766-.97c1.887,0,2.238,1.242,2.238,2.862v3.291ZM2.8,3.894a1.08,1.08,0,1,1,1.08-1.08A1.08,1.08,0,0,1,2.8,3.894Zm.933,6.813H1.866V4.717H3.732ZM11.651,0H.928A.917.917,0,0,0,0,.907V11.672a.917.917,0,0,0,.928.907H11.646a.917.917,0,0,0,.933-.907V.907A.917.917,0,0,0,11.646,0Z" transform="translate(791.447 588.119)"/>
  </g>
</svg>
